<?xml version="1.0" encoding="UTF-8"?>
<svg id="Layer_1" data-name="Layer 1" xmlns="http://www.w3.org/2000/svg" viewBox="0 0 300 300">
  <defs>
    <style>
      .cls-1 {
        fill: #b119fa;
      }

      .cls-1, .cls-2 {
        stroke-width: 0px;
      }

      .cls-2 {
        fill: #fff;
      }
    </style>
  </defs>
  <path class="cls-1" d="M284.53,127.82l-15.53-5.47c-2.64-.93-4.73-2.98-5.71-5.59l-4.33-11.54c-.08-.2-.16-.39-.25-.59l-5.1-11.22c-1.15-2.55-1.13-5.47.08-7.99l7.12-14.85c1.99-4.15,1.14-9.11-2.11-12.38l-16.89-16.88c-3.26-3.26-8.22-4.11-12.38-2.11l-14.85,7.12c-2.52,1.2-5.45,1.24-7.99.08l-11.23-5.1c-.19-.09-.39-.17-.59-.24l-11.54-4.33c-2.62-.98-4.66-3.07-5.59-5.71l-5.47-15.54c-1.53-4.35-5.64-7.25-10.25-7.25h-23.88c-4.61,0-8.71,2.91-10.25,7.25l-5.47,15.54c-.92,2.64-2.97,4.73-5.59,5.71l-11.54,4.33c-.2.07-.4.15-.59.24l-11.23,5.1c-2.55,1.16-5.47,1.13-7.99-.08l-14.85-7.12c-4.16-1.99-9.12-1.15-12.38,2.11l-16.89,16.88c-3.26,3.26-4.11,8.22-2.11,12.38l7.12,14.85c1.21,2.52,1.24,5.45.08,7.99l-5.1,11.22c-.09.2-.17.39-.25.59l-4.33,11.54c-.98,2.62-3.07,4.66-5.71,5.59l-15.53,5.47c-4.35,1.53-7.26,5.63-7.26,10.24v23.88c0,4.61,2.91,8.71,7.26,10.24l15.53,5.47c2.64.93,4.73,2.98,5.71,5.59l4.33,11.54c.08.2.16.39.25.59l5.1,11.22c1.15,2.55,1.13,5.47-.08,7.99l-7.12,14.85c-1.99,4.15-1.14,9.11,2.11,12.38l16.89,16.88c3.26,3.26,8.22,4.11,12.38,2.11l14.85-7.12c2.52-1.2,5.45-1.24,7.99-.08l11.23,5.1c.19.09.39.17.59.24l11.54,4.33c2.62.98,4.66,3.07,5.59,5.71l5.47,15.54c1.53,4.35,5.64,7.25,10.25,7.25h23.88c4.61,0,8.71-2.91,10.25-7.25l5.47-15.54c.92-2.64,2.97-4.73,5.59-5.71l11.54-4.33c.2-.07.4-.15.59-.24l11.23-5.1c2.55-1.16,5.47-1.13,7.99.08l14.85,7.12c4.16,1.99,9.12,1.15,12.38-2.11l16.89-16.88c3.26-3.26,4.11-8.22,2.11-12.38l-7.12-14.85c-1.21-2.52-1.24-5.45-.08-7.99l5.1-11.22c.09-.2.17-.39.25-.59l4.33-11.54c.98-2.62,3.07-4.66,5.71-5.59l15.53-5.47c4.35-1.53,7.26-5.63,7.26-10.24v-23.88c0-4.61-2.91-8.71-7.26-10.24ZM219.21,202.42c-12.21,16.34-30.14,28.14-50.84,32.42-5.57,1.16-11.35,1.76-17.27,1.76-6.33,0-12.49-.69-18.42-2.01-20.21-4.47-37.71-16.13-49.69-32.17-10.58-14.16-16.85-31.74-16.85-50.78s6.26-36.61,16.85-50.78c11.97-16.04,29.48-27.7,49.69-32.17,5.93-1.31,12.09-2.01,18.42-2.01,5.92,0,11.7.6,17.27,1.76,20.7,4.27,38.65,16.07,50.84,32.42,10.58,14.16,16.85,31.73,16.85,50.78s-6.26,36.62-16.85,50.78Z"/>
  <path class="cls-2" d="M229.17,203.08c10.11-15.27,15.44-32.94,15.44-51.45s-5.33-36.16-15.43-51.44l.11-.14-3.22-4.31c-.43-.57-.86-1.14-1.3-1.71-11.9-15.21-28.1-26.3-46.39-31.86-2.71-.82-5.47-1.53-8.26-2.1,0,0,0,0,0,0h0s-1.45-.3-1.45-.3h-.05c-11.83-2.24-24.36-2.16-36.17.24h-.05s-1.55.33-1.55.33c-3.41.75-6.76,1.7-10.04,2.82-17.71,6.07-33.31,17.39-44.65,32.58,0,0,0,0,0,0l-3.22,4.31.11.14c-10.1,15.27-15.43,32.94-15.43,51.43s5.33,36.18,15.43,51.45l-.11.14,3.22,4.31c.84,1.13,1.7,2.23,2.59,3.31,1.77,2.16,3.64,4.24,5.58,6.23,0,0,0,0,0,0,12.65,12.91,28.79,21.94,46.51,25.86,0,0,0,0,0,0,0,0,0,0,0,0l1.55.34h.05c6.1,1.23,12.37,1.87,18.67,1.87,5.9,0,11.78-.56,17.5-1.64h.05s1.46-.29,1.46-.29c4.89-1.01,9.66-2.41,14.27-4.16,1.77-.68,3.52-1.41,5.25-2.19.4-.18.81-.37,1.21-.56,13.8-6.48,25.92-16.31,35.23-28.77,0,0,0,0,0,0l3.22-4.31-.11-.14ZM219.62,191.18c-4.81-5.18-10.17-9.79-16.05-13.77,2.39-8.36,3.6-17,3.6-25.77s-1.21-17.42-3.6-25.77c5.87-3.98,11.24-8.58,16.04-13.77,6.94,11.97,10.58,25.47,10.58,39.54s-3.64,27.57-10.58,39.54ZM107.09,151.64c0-6.6.82-13.09,2.42-19.4,6.76,3.36,13.89,5.89,21.31,7.54,4.28.95,8.66,1.59,13.07,1.93v19.89c-4.41.33-8.79.97-13.06,1.92-7.42,1.64-14.56,4.16-21.32,7.53-1.59-6.31-2.42-12.8-2.42-19.4ZM192.76,151.64c0,6.24-.74,12.41-2.17,18.41-6.53-3.05-13.38-5.34-20.48-6.81-3.87-.8-7.82-1.35-11.8-1.65v-19.88c3.98-.3,7.93-.86,11.8-1.66,7.1-1.46,13.95-3.76,20.49-6.81,1.43,6,2.17,12.16,2.17,18.4ZM158.3,176.05c3,.27,5.97.7,8.88,1.3,6.53,1.35,12.81,3.51,18.76,6.44-5.96,13.32-15.61,24.86-27.64,33.13v-40.88ZM167.18,125.93c-2.91.6-5.88,1.04-8.88,1.3v-40.89c12.02,8.27,21.68,19.81,27.64,33.14-5.96,2.93-12.24,5.1-18.77,6.44ZM143.89,127.23c-3.36-.3-6.69-.81-9.95-1.54-6.85-1.52-13.41-3.93-19.59-7.19,6.38-13.77,16.73-25.55,29.54-33.7v42.43ZM133.94,177.58c3.26-.72,6.59-1.23,9.95-1.53v42.42c-12.81-8.15-23.16-19.93-29.54-33.71,6.18-3.25,12.74-5.67,19.6-7.18ZM198.32,191.37c4.66,3.47,8.92,7.42,12.72,11.84-.21.24-.41.49-.62.73-.31.35-.61.69-.92,1.03-.16.17-.32.34-.47.51-.32.34-.64.69-.96,1.02-.3.31-.6.62-.91.93-.22.22-.45.44-.67.66-.3.29-.6.59-.9.88-.29.27-.57.55-.86.81-.28.26-.57.51-.86.77-.31.27-.61.55-.92.82-.25.22-.49.44-.74.65-.34.29-.69.57-1.04.85-.4.33-.8.66-1.21.98-.12.1-.24.2-.36.29-.4.31-.81.61-1.22.92-.52.39-1.04.78-1.57,1.16-.43.31-.87.6-1.31.9-.53.36-1.06.73-1.61,1.08-.45.29-.9.56-1.36.84-.55.34-1.09.67-1.65,1-.46.27-.93.52-1.4.78-.53.29-1.06.59-1.6.87-.2.1-.4.2-.6.3-.31.16-.62.31-.93.47-.51.25-1.02.51-1.54.75-.24.11-.49.22-.73.33-.31.14-.62.28-.93.42-.49.22-.99.43-1.48.64-.25.1-.5.21-.75.31-.34.14-.69.28-1.03.41-.48.19-.96.37-1.44.55-.24.09-.48.17-.71.26-.39.14-.78.27-1.18.41-.47.16-.95.32-1.43.47-.21.07-.41.13-.62.2-.45.14-.89.27-1.34.4-.51.15-1.02.29-1.54.43-.13.03-.25.07-.38.1-.51.13-1.02.26-1.53.38-.37.09-.75.17-1.12.26-.52-.12-1.04-.24-1.56-.37,13.41-9.38,24.29-22.22,31.29-37.03ZM198.32,111.91c-6.99-14.81-17.87-27.65-31.28-37.03.52-.13,1.04-.25,1.56-.37.37.08.75.17,1.12.26.52.12,1.03.25,1.55.39.13.03.25.07.38.1.51.14,1.01.28,1.52.42.46.13.92.27,1.37.41.21.06.41.13.62.2.47.15.93.3,1.4.46.4.14.81.28,1.21.42.24.08.47.17.71.26.47.17.94.35,1.41.54.36.14.71.28,1.07.42.25.1.5.2.74.31.49.2.97.42,1.45.63.32.14.64.29.96.43.24.11.48.22.73.33.51.24,1.01.49,1.51.74.32.16.64.32.96.48.2.1.4.2.6.3.53.28,1.05.57,1.57.86.48.26.95.52,1.43.8.55.32,1.08.65,1.62.98.46.28.93.56,1.38.86.54.34,1.06.71,1.59,1.06.44.3.89.6,1.33.91.52.37,1.04.76,1.55,1.14.41.31.83.61,1.24.93.12.1.24.2.37.3.4.31.79.64,1.19.96.35.29.71.57,1.06.87.25.21.49.43.74.64.31.27.61.54.91.81.29.26.59.52.88.79.29.26.57.54.85.8.3.29.59.58.89.87.23.23.47.45.7.68.3.3.6.61.9.92.32.33.63.67.94,1,.17.18.34.36.5.54.31.34.61.68.92,1.02.21.24.41.48.62.73-3.8,4.42-8.06,8.37-12.72,11.84ZM91.71,99.41c.3-.34.6-.67.9-1,.15-.17.31-.33.46-.49.31-.34.63-.68.95-1.01.29-.31.59-.61.88-.91.22-.22.44-.43.66-.65.29-.29.58-.57.88-.86.28-.27.56-.54.84-.8.27-.26.56-.5.83-.75.29-.26.59-.53.88-.79.25-.22.5-.44.75-.66.33-.28.67-.56,1.01-.84.35-.29.7-.58,1.06-.86.16-.13.32-.26.49-.39.39-.31.79-.6,1.19-.9.5-.38,1-.76,1.51-1.12.43-.31.87-.6,1.3-.9.51-.35,1.03-.71,1.55-1.05.44-.29.89-.57,1.34-.85.53-.33,1.05-.66,1.59-.98.46-.27.92-.53,1.38-.79.53-.3,1.06-.6,1.6-.89.11-.06.22-.12.34-.18.37-.2.74-.38,1.11-.57.51-.26,1.03-.52,1.54-.77.2-.1.41-.19.61-.29.32-.15.64-.3.96-.44.5-.23.99-.45,1.49-.67.22-.09.44-.19.66-.28.34-.14.68-.28,1.02-.42.48-.2.97-.39,1.46-.57.21-.08.42-.16.63-.24.38-.14.77-.28,1.16-.42.48-.17.97-.34,1.45-.5.18-.06.36-.12.53-.18.44-.14.88-.28,1.32-.41.52-.16,1.04-.31,1.56-.46.1-.03.2-.06.3-.08.5-.14,1-.27,1.51-.4.34-.09.68-.17,1.02-.25.13.03.25.07.38.1-13.02,9.1-23.65,21.46-30.65,35.72-4-3.15-7.68-6.66-11.01-10.53.19-.22.37-.44.56-.66ZM102.16,192.67c7,14.27,17.64,26.63,30.66,35.73-.13.03-.26.07-.39.1-.33-.08-.67-.16-1-.25-.52-.13-1.03-.27-1.55-.41-.09-.03-.19-.05-.28-.08-.51-.14-1.02-.29-1.52-.45-.46-.14-.92-.28-1.38-.43-.17-.06-.35-.11-.52-.17-.47-.16-.93-.32-1.4-.48-.41-.14-.82-.29-1.23-.44-.21-.08-.41-.15-.61-.23-.47-.18-.93-.36-1.4-.55-.37-.15-.74-.3-1.1-.45-.21-.09-.43-.18-.64-.27-.48-.21-.96-.42-1.44-.64-.34-.16-.69-.32-1.03-.48-.2-.09-.4-.18-.59-.28-.5-.24-1-.49-1.49-.75-.39-.2-.78-.4-1.16-.6-.11-.06-.22-.11-.33-.17-.52-.28-1.03-.57-1.55-.86-.48-.27-.95-.54-1.42-.82-.52-.31-1.03-.63-1.55-.95-.46-.29-.92-.57-1.38-.87-.51-.33-1.01-.68-1.51-1.03-.45-.31-.89-.61-1.33-.92-.5-.36-.99-.73-1.48-1.1-.4-.3-.8-.6-1.2-.91-.19-.15-.37-.3-.56-.45-.33-.26-.65-.53-.97-.79-.34-.28-.68-.56-1.02-.84-.27-.23-.53-.46-.79-.69-.28-.25-.56-.5-.84-.75-.28-.25-.56-.5-.84-.76-.29-.27-.58-.55-.87-.83-.29-.28-.57-.56-.86-.84-.22-.21-.44-.43-.65-.64-.3-.31-.6-.62-.9-.93-.32-.33-.63-.67-.94-1-.15-.16-.3-.32-.45-.48-.31-.34-.61-.67-.91-1.02-.19-.22-.37-.44-.56-.65,3.33-3.87,7.01-7.39,11.01-10.54ZM82.59,112.08c4.27,4.61,8.99,8.75,14.1,12.42-2.66,8.77-4.01,17.87-4.01,27.14s1.35,18.37,4.01,27.14c-5.12,3.67-9.84,7.82-14.11,12.42-6.95-11.97-10.59-25.48-10.59-39.56s3.64-27.58,10.59-39.55Z"/>
  <path class="cls-2" d="M161.94,300h-23.88c-8.08,0-15.31-5.12-17.99-12.74l-5.47-15.54c-.12-.35-.39-.62-.73-.75l-11.54-4.33c-.37-.14-.75-.3-1.12-.46l-11.21-5.1c-.33-.15-.71-.15-1.04.01l-14.85,7.12c-7.29,3.49-16.02,2-21.73-3.71l-16.88-16.88c-5.71-5.71-7.2-14.45-3.71-21.73l7.12-14.85c.16-.33.16-.71.01-1.04l-5.1-11.22c-.16-.36-.32-.73-.46-1.11l-4.33-11.54c-.13-.34-.4-.61-.75-.73l-15.54-5.47c-7.62-2.68-12.74-9.91-12.74-17.99v-23.88c0-8.08,5.12-15.31,12.74-17.99l15.54-5.47c.35-.12.62-.39.75-.73l4.33-11.54c.14-.38.3-.75.46-1.11l5.1-11.22c.15-.33.15-.71-.01-1.04l-7.12-14.85c-3.49-7.28-2-16.02,3.71-21.73l16.88-16.88c5.71-5.71,14.45-7.2,21.73-3.71l14.85,7.12c.33.16.71.16,1.04.01l11.22-5.1c.37-.17.73-.32,1.1-.46l11.55-4.33c.34-.13.61-.4.73-.75l5.47-15.54c2.68-7.62,9.91-12.74,17.99-12.74h23.88c8.08,0,15.31,5.12,17.99,12.74l5.47,15.54c.12.35.39.62.73.75l11.54,4.33c.38.14.75.3,1.11.46l11.22,5.1c.33.15.71.15,1.04-.01l14.85-7.12c7.28-3.49,16.02-2,21.73,3.71l16.88,16.88c5.71,5.71,7.2,14.45,3.71,21.73l-7.12,14.85c-.16.33-.16.71-.01,1.04l5.1,11.22c.16.36.32.73.45,1.1l4.33,11.55c.13.34.4.61.75.73l15.54,5.47c7.62,2.68,12.74,9.91,12.74,17.99v23.88c0,8.08-5.12,15.31-12.74,17.99l-15.54,5.47c-.35.12-.62.39-.75.73l-4.33,11.54c-.14.38-.3.75-.46,1.1l-5.1,11.23c-.15.33-.15.71.01,1.04l7.12,14.85c3.49,7.28,2,16.02-3.71,21.73l-16.88,16.88c-5.71,5.71-14.45,7.2-21.73,3.71l-14.85-7.12c-.33-.16-.71-.16-1.04-.01l-11.22,5.1c-.35.16-.73.32-1.11.46l-11.54,4.33c-.34.13-.61.4-.73.75l-5.47,15.54c-2.68,7.62-9.91,12.74-17.99,12.74ZM89.49,244.55c2.49,0,4.98.53,7.31,1.59l11.3,5.13,11.55,4.33c4.91,1.84,8.72,5.73,10.46,10.67l5.47,15.54c.37,1.06,1.38,1.77,2.5,1.77h23.88c1.12,0,2.13-.71,2.5-1.77l5.47-15.54c1.74-4.94,5.55-8.83,10.46-10.67l11.6-4.35,11.24-5.11c4.77-2.17,10.21-2.11,14.94.15l14.85,7.12c1.01.48,2.23.28,3.02-.52l16.88-16.88c.79-.79,1-2.01.52-3.02l-7.12-14.85c-2.27-4.72-2.32-10.17-.15-14.94l5.1-11.22s.02-.06.04-.09l4.32-11.53c1.84-4.91,5.73-8.72,10.67-10.46l15.54-5.47c1.06-.37,1.77-1.38,1.77-2.5v-23.88c0-1.12-.71-2.13-1.77-2.5l-15.54-5.47c-4.94-1.74-8.83-5.55-10.67-10.46l-4.33-11.54s-.02-.05-.03-.08l-5.1-11.22c-2.17-4.77-2.11-10.21.15-14.94l7.12-14.85c.49-1.01.28-2.23-.52-3.02l-16.88-16.88c-.79-.79-2.01-1-3.02-.52l-14.85,7.12c-4.73,2.27-10.17,2.32-14.94.15l-11.22-5.1s-.05-.02-.08-.03l-11.54-4.33c-4.91-1.84-8.72-5.73-10.46-10.67l-5.47-15.54c-.37-1.06-1.38-1.77-2.5-1.77h-23.88c-1.12,0-2.13.71-2.5,1.77l-5.47,15.54c-1.74,4.94-5.55,8.83-10.45,10.67l-11.54,4.33s-.06.02-.08.04l-11.21,5.1c-4.77,2.17-10.21,2.11-14.94-.15l-14.85-7.12c-1.01-.49-2.23-.28-3.02.52l-16.88,16.88c-.79.79-1,2.01-.52,3.02l7.12,14.85c2.27,4.72,2.32,10.17.15,14.94l-5.13,11.3-4.33,11.54c-1.84,4.91-5.73,8.72-10.67,10.46l-15.54,5.47c-1.06.37-1.77,1.38-1.77,2.5v23.88c0,1.12.71,2.13,1.77,2.5l15.54,5.47c4.94,1.74,8.83,5.55,10.67,10.46l4.36,11.62,5.1,11.23c2.17,4.77,2.11,10.21-.15,14.94l-7.12,14.85c-.49,1.01-.28,2.23.52,3.02l16.88,16.88c.79.79,2.01,1,3.02.52l14.85-7.12c2.42-1.16,5.02-1.74,7.63-1.74Z"/>
</svg>